# xmcd
#
# Track frame offsets:
#	150
#	6354
#	12230
#	21098
#	27918
#	47221
#	56293
#	70526
#	83174
#	97061
#	104688
#	110979
#	126057
#	137261
#	145574
#	154612
#	170107
#
# Disc length: 2533 seconds
#
# Revision: 0
# Processed by: cddbd v1.5.2PL0 Copyright (c) Steve Scherf et al.
# Submitted via: EasyCDDAExtractor 16.0.6.1
#
DISCID=de09e311
DTITLE=Θεοδωράκης Μίκης - Ένας όμηρος-Μ. Θεοδωράκης
DYEAR=2010
DGENRE=Έντεχνη λαϊκή
TTITLE0=Άνευ ερμηνευτού - Εισαγωγή [οργανικό]
TTITLE1=Θεοδωράκης Μίκης - Ήταν 18 Νοέμβρη [ Μπρένταν Μπίαν, απ. Βασ. Ρώτας]
TTITLE2=Θεοδωράκης Μίκης - Το γελαστό παιδί [ Μπρένταν Μπίαν, απ. Βασ. Ρώτας]
TTITLE3=Θεοδωράκης Μίκης - Δεν έχει η γη κι ο κόσμος θέση [ Μπρένταν Μπίαν, απ
TTITLE3=Βασ. Ρώτας]
TTITLE4=Θεοδωράκης Μίκης - Άνοιξε λίγο το παράθυρο [ Μπρένταν Μπίαν, απ. Βασ. 
TTITLE4=Ρώτας]
TTITLE5=Θεοδωράκης Μίκης - Δεν έχει θέση η γη [ Μπρένταν Μπίαν, απ. Βασ. Ρώτας
TTITLE5=]
TTITLE6=Θεοδωράκης Μίκης - Διαβάζεις στην Αγία Γραφή [ Μπρένταν Μπίαν, απ. Βασ
TTITLE6=Ρώτας]
TTITLE7=Θεοδωράκης Μίκης - Το Σεπτέμβριο θυμάμαι [ Μπρένταν Μπίαν, απ. Βασ. Ρώ
TTITLE7=τας]
TTITLE8=Θεοδωράκης Μίκης - Θα σού δώσω ένα τόπι χρυσό [ Μπρένταν Μπίαν, απ. Βα
TTITLE8=σ. Ρώτας]
TTITLE9=Θεοδωράκης Μίκης - Θα σού στείλω μάννα [ Μπρένταν Μπίαν, απ. Βασ. Ρώτα
TTITLE9=ς]
TTITLE10=Θεοδωράκης Μίκης - Θες να ζεις απ' τις γυναίκες [ Μπρένταν Μπίαν, απ.
TTITLE10=Βασ. Ρώτας]
TTITLE11=Θεοδωράκης Μίκης - Δεν παίρνει εδώ κανείς [ Μπρένταν Μπίαν, απ. Βασ. 
TTITLE11=Ρώτας]
TTITLE12=Θεοδωράκης Μίκης - Είμαι Άγγλος, νιός και τυχερός [ Μπρένταν Μπίαν, α
TTITLE12=π. Βασ. Ρώτας]
TTITLE13=Θεοδωράκης Μίκης - Λατρεύω το Σωτήρα μου [ Μπρένταν Μπίαν, απ. Βασ. Ρ
TTITLE13=ώτας]
TTITLE14=Άνευ ερμηνευτού - Το γελαστό παιδί [οργανικό]
TTITLE15=Θεοδωράκης Μίκης - Της κόλασης καμπάνες [ Μπρένταν Μπίαν, απ. Βασ. Ρώ
TTITLE15=τας]
TTITLE16=Χορωδία - Ποιός δε μιλά για τη Λαμπρή [ Μπρένταν Μπίαν, απ. Βασ. Ρώτα
TTITLE16=ς]
EXTD=
EXTT0=
EXTT1=
EXTT2=
EXTT3=
EXTT4=
EXTT5=
EXTT6=
EXTT7=
EXTT8=
EXTT9=
EXTT10=
EXTT11=
EXTT12=
EXTT13=
EXTT14=
EXTT15=
EXTT16=
PLAYORDER=
